<svg xmlns="http://www.w3.org/2000/svg" xmlns:xlink="http://www.w3.org/1999/xlink" width="72" height="72"><path fill="#F5F5F5" d="M31.68 48.23Q28.86 61.14 18.07 61.14Q11.57 61.14 7.77 55.72Q4.32 50.77 4.32 42.61Q4.32 34.84 7.56 29.88Q11.36 24.12 18 24.12Q28.30 24.12 31.11 35.79L25.35 35.79Q23.84 29.14 18.07 29.14Q14.41 29.14 12.27 32.52Q9.95 36.14 9.95 42.61Q9.95 47.95 11.53 51.36Q13.68 56.11 18.07 56.11Q24.47 56.11 25.84 48.23L31.68 48.23ZM39.66 25.49L45.70 25.49L54 53.12L62.26 25.49L68.31 25.49L56.95 59.70L51.05 59.70L39.66 25.49Z"/></svg>